<svg xmlns="http://www.w3.org/2000/svg" width="900" height="420" viewBox="0 0 900 420">
  <defs>
    <linearGradient id="bga" x1="0%" y1="0%" x2="100%" y2="100%">
      <stop offset="0%" style="stop-color:#0a0e1a"/>
      <stop offset="100%" style="stop-color:#0f172a"/>
    </linearGradient>
  </defs>

  <!-- Background -->
  <rect width="900" height="420" fill="url(#bga)" rx="8"/>

  <!-- Sidebar (abbreviated) -->
  <rect x="0" y="0" width="200" height="420" fill="#111827" rx="8"/>
  <rect x="8" y="0" width="192" height="420" fill="#111827"/>

  <!-- Sidebar items -->
  <rect x="16" y="18" width="32" height="32" rx="8" fill="#3b82f6"/>
  <text x="32" y="40" text-anchor="middle" fill="white" font-size="14">&#x1f6e1;</text>
  <text x="58" y="32" fill="#f8fafc" font-family="Inter,sans-serif" font-size="12" font-weight="700">KWTCyberWatch</text>
  <line x1="16" y1="62" x2="184" y2="62" stroke="#1e293b" stroke-width="1"/>
  <text x="40" y="88" fill="#94a3b8" font-family="Inter,sans-serif" font-size="11">&#x1f4ca; Dashboard</text>
  <rect x="12" y="96" width="176" height="32" rx="6" fill="rgba(59,130,246,0.1)"/>
  <text x="40" y="117" fill="#3b82f6" font-family="Inter,sans-serif" font-size="11">&#x26a0;  Alerts</text>
  <text x="40" y="145" fill="#94a3b8" font-family="Inter,sans-serif" font-size="11">&#x1f50d; Monitoring</text>

  <!-- Top Bar -->
  <rect x="200" y="0" width="700" height="52" fill="rgba(17,24,39,0.5)"/>
  <line x1="200" y1="52" x2="900" y2="52" stroke="#1e293b" stroke-width="1"/>
  <text x="224" y="24" fill="#f8fafc" font-family="Inter,sans-serif" font-size="15" font-weight="700">Alert Center</text>
  <text x="224" y="40" fill="#64748b" font-family="Inter,sans-serif" font-size="10">All detected domain threats and suspicious certificates</text>

  <!-- Live Badge -->
  <rect x="770" y="14" width="110" height="26" rx="13" fill="rgba(16,185,129,0.1)" stroke="rgba(16,185,129,0.2)" stroke-width="1"/>
  <circle cx="786" cy="27" r="4" fill="#10b981"/>
  <text x="796" y="31" fill="#10b981" font-family="Inter,sans-serif" font-size="10" font-weight="600">Live Monitoring</text>

  <!-- Filter Buttons -->
  <rect x="216" y="64" width="70" height="28" rx="6" fill="rgba(59,130,246,0.1)" stroke="#3b82f6" stroke-width="1"/>
  <text x="251" y="82" text-anchor="middle" fill="#3b82f6" font-family="Inter,sans-serif" font-size="10" font-weight="500">All Alerts</text>

  <rect x="296" y="64" width="58" height="28" rx="6" fill="#111827" stroke="#1e293b" stroke-width="1"/>
  <text x="325" y="82" text-anchor="middle" fill="#94a3b8" font-family="Inter,sans-serif" font-size="10">Critical</text>

  <rect x="364" y="64" width="46" height="28" rx="6" fill="#111827" stroke="#1e293b" stroke-width="1"/>
  <text x="387" y="82" text-anchor="middle" fill="#94a3b8" font-family="Inter,sans-serif" font-size="10">High</text>

  <rect x="420" y="64" width="58" height="28" rx="6" fill="#111827" stroke="#1e293b" stroke-width="1"/>
  <text x="449" y="82" text-anchor="middle" fill="#94a3b8" font-family="Inter,sans-serif" font-size="10">Medium</text>

  <rect x="488" y="64" width="42" height="28" rx="6" fill="#111827" stroke="#1e293b" stroke-width="1"/>
  <text x="509" y="82" text-anchor="middle" fill="#94a3b8" font-family="Inter,sans-serif" font-size="10">New</text>

  <!-- Alerts Table Card -->
  <rect x="216" y="104" width="662" height="304" rx="8" fill="#111827" stroke="#1e293b" stroke-width="1"/>
  <text x="232" y="128" fill="#f8fafc" font-family="Inter,sans-serif" font-size="12" font-weight="600">All Alerts (8)</text>
  <line x1="216" y1="138" x2="878" y2="138" stroke="#1e293b" stroke-width="1"/>

  <!-- Table Header -->
  <rect x="216" y="138" width="662" height="24" fill="rgba(15,23,42,0.5)"/>
  <text x="232" y="154" fill="#64748b" font-family="Inter,sans-serif" font-size="9" font-weight="600">ID</text>
  <text x="272" y="154" fill="#64748b" font-family="Inter,sans-serif" font-size="9" font-weight="600">DOMAIN</text>
  <text x="500" y="154" fill="#64748b" font-family="Inter,sans-serif" font-size="9" font-weight="600">RISK</text>
  <text x="572" y="154" fill="#64748b" font-family="Inter,sans-serif" font-size="9" font-weight="600">CATEGORY</text>
  <text x="668" y="154" fill="#64748b" font-family="Inter,sans-serif" font-size="9" font-weight="600">STATUS</text>
  <text x="780" y="154" fill="#64748b" font-family="Inter,sans-serif" font-size="9" font-weight="600">DETECTED</text>

  <!-- Row 1 -->
  <text x="232" y="180" fill="#64748b" font-family="monospace" font-size="9">#0001</text>
  <text x="272" y="178" fill="#f8fafc" font-family="Inter,sans-serif" font-size="10" font-weight="500">kuwait-bank-secure.com</text>
  <text x="272" y="189" fill="#64748b" font-family="Inter,sans-serif" font-size="8">Let's Encrypt</text>
  <rect x="495" y="170" width="46" height="18" rx="4" fill="rgba(239,68,68,0.1)"/>
  <text x="518" y="183" text-anchor="middle" fill="#fb923c" font-family="Inter,sans-serif" font-size="9" font-weight="600">high</text>
  <text x="572" y="183" fill="#94a3b8" font-family="Inter,sans-serif" font-size="10">Phishing</text>
  <rect x="663" y="170" width="42" height="18" rx="4" fill="rgba(59,130,246,0.1)"/>
  <text x="684" y="183" text-anchor="middle" fill="#3b82f6" font-family="Inter,sans-serif" font-size="9">new</text>
  <text x="780" y="183" fill="#64748b" font-family="Inter,sans-serif" font-size="9">14:23:01</text>
  <line x1="232" y1="196" x2="862" y2="196" stroke="#1e293b" stroke-width="0.5"/>

  <!-- Row 2 -->
  <text x="232" y="216" fill="#64748b" font-family="monospace" font-size="9">#0002</text>
  <text x="272" y="214" fill="#f8fafc" font-family="Inter,sans-serif" font-size="10" font-weight="500">kw-government-portal.net</text>
  <text x="272" y="225" fill="#64748b" font-family="Inter,sans-serif" font-size="8">Comodo</text>
  <rect x="495" y="206" width="54" height="18" rx="4" fill="rgba(220,38,38,0.15)"/>
  <text x="522" y="219" text-anchor="middle" fill="#f87171" font-family="Inter,sans-serif" font-size="9" font-weight="600">critical</text>
  <text x="572" y="219" fill="#94a3b8" font-family="Inter,sans-serif" font-size="10">Impersonation</text>
  <rect x="663" y="206" width="72" height="18" rx="4" fill="rgba(245,158,11,0.1)"/>
  <text x="699" y="219" text-anchor="middle" fill="#f59e0b" font-family="Inter,sans-serif" font-size="9">investigating</text>
  <text x="780" y="219" fill="#64748b" font-family="Inter,sans-serif" font-size="9">13:45:22</text>
  <line x1="232" y1="232" x2="862" y2="232" stroke="#1e293b" stroke-width="0.5"/>

  <!-- Row 3 -->
  <text x="232" y="252" fill="#64748b" font-family="monospace" font-size="9">#0003</text>
  <text x="272" y="250" fill="#f8fafc" font-family="Inter,sans-serif" font-size="10" font-weight="500">q8-shopping-deals.com</text>
  <text x="272" y="261" fill="#64748b" font-family="Inter,sans-serif" font-size="8">Let's Encrypt</text>
  <rect x="495" y="242" width="56" height="18" rx="4" fill="rgba(245,158,11,0.1)"/>
  <text x="523" y="255" text-anchor="middle" fill="#f59e0b" font-family="Inter,sans-serif" font-size="9" font-weight="600">medium</text>
  <text x="572" y="255" fill="#94a3b8" font-family="Inter,sans-serif" font-size="10">Suspicious</text>
  <rect x="663" y="242" width="42" height="18" rx="4" fill="rgba(59,130,246,0.1)"/>
  <text x="684" y="255" text-anchor="middle" fill="#3b82f6" font-family="Inter,sans-serif" font-size="9">new</text>
  <text x="780" y="255" fill="#64748b" font-family="Inter,sans-serif" font-size="9">12:10:55</text>
  <line x1="232" y1="268" x2="862" y2="268" stroke="#1e293b" stroke-width="0.5"/>

  <!-- Row 4 -->
  <text x="232" y="288" fill="#64748b" font-family="monospace" font-size="9">#0004</text>
  <text x="272" y="286" fill="#f8fafc" font-family="Inter,sans-serif" font-size="10" font-weight="500">kwt-telecom-update.org</text>
  <text x="272" y="297" fill="#64748b" font-family="Inter,sans-serif" font-size="8">DigiCert</text>
  <rect x="495" y="278" width="46" height="18" rx="4" fill="rgba(239,68,68,0.1)"/>
  <text x="518" y="291" text-anchor="middle" fill="#fb923c" font-family="Inter,sans-serif" font-size="9" font-weight="600">high</text>
  <text x="572" y="291" fill="#94a3b8" font-family="Inter,sans-serif" font-size="10">Phishing</text>
  <rect x="663" y="278" width="56" height="18" rx="4" fill="rgba(16,185,129,0.1)"/>
  <text x="691" y="291" text-anchor="middle" fill="#10b981" font-family="Inter,sans-serif" font-size="9">resolved</text>
  <text x="780" y="291" fill="#64748b" font-family="Inter,sans-serif" font-size="9">11:30:18</text>
  <line x1="232" y1="304" x2="862" y2="304" stroke="#1e293b" stroke-width="0.5"/>

  <!-- Row 5 -->
  <text x="232" y="324" fill="#64748b" font-family="monospace" font-size="9">#0005</text>
  <text x="272" y="322" fill="#f8fafc" font-family="Inter,sans-serif" font-size="10" font-weight="500">kuwait-airways-promo.com</text>
  <text x="272" y="333" fill="#64748b" font-family="Inter,sans-serif" font-size="8">Let's Encrypt</text>
  <rect x="495" y="314" width="54" height="18" rx="4" fill="rgba(220,38,38,0.15)"/>
  <text x="522" y="327" text-anchor="middle" fill="#f87171" font-family="Inter,sans-serif" font-size="9" font-weight="600">critical</text>
  <text x="572" y="327" fill="#94a3b8" font-family="Inter,sans-serif" font-size="10">Brand Abuse</text>
  <rect x="663" y="314" width="42" height="18" rx="4" fill="rgba(59,130,246,0.1)"/>
  <text x="684" y="327" text-anchor="middle" fill="#3b82f6" font-family="Inter,sans-serif" font-size="9">new</text>
  <text x="780" y="327" fill="#64748b" font-family="Inter,sans-serif" font-size="9">10:15:44</text>
  <line x1="232" y1="340" x2="862" y2="340" stroke="#1e293b" stroke-width="0.5"/>

  <!-- Row 6 -->
  <text x="232" y="360" fill="#64748b" font-family="monospace" font-size="9">#0006</text>
  <text x="272" y="358" fill="#f8fafc" font-family="Inter,sans-serif" font-size="10" font-weight="500">kw-visa-services.net</text>
  <text x="272" y="369" fill="#64748b" font-family="Inter,sans-serif" font-size="8">GoDaddy</text>
  <rect x="495" y="350" width="46" height="18" rx="4" fill="rgba(239,68,68,0.1)"/>
  <text x="518" y="363" text-anchor="middle" fill="#fb923c" font-family="Inter,sans-serif" font-size="9" font-weight="600">high</text>
  <text x="572" y="363" fill="#94a3b8" font-family="Inter,sans-serif" font-size="10">Fraud</text>
  <rect x="663" y="350" width="72" height="18" rx="4" fill="rgba(245,158,11,0.1)"/>
  <text x="699" y="363" text-anchor="middle" fill="#f59e0b" font-family="Inter,sans-serif" font-size="9">investigating</text>
  <text x="780" y="363" fill="#64748b" font-family="Inter,sans-serif" font-size="9">09:52:33</text>
</svg>
